<?xml version="1.0" encoding="UTF-8"?>
<!DOCTYPE svg PUBLIC "-//W3C//DTD SVG 1.1//EN" "http://www.w3.org/Graphics/SVG/1.1/DTD/svg11.dtd">
<!-- Creator: CorelDRAW -->
<svg xmlns="http://www.w3.org/2000/svg" xml:space="preserve" width="254mm" height="254mm" version="1.1" style="shape-rendering:geometricPrecision; text-rendering:geometricPrecision; image-rendering:optimizeQuality; fill-rule:evenodd; clip-rule:evenodd"
viewBox="0 0 25400 25400"
 xmlns:xlink="http://www.w3.org/1999/xlink"
 xmlns:xodm="http://www.corel.com/coreldraw/odm/2003">
 <defs>
  <style type="text/css">
   <![CDATA[
    .fil0 {fill:#66403D;fill-rule:nonzero}
   ]]>
  </style>
 </defs>
 <g id="Camada_x0020_1">
  <metadata id="CorelCorpID_0Corel-Layer"/>
  <path class="fil0" d="M18463.12 9919.1l-126.12 636.53 -455.42 0 -119.12 629.52 455.42 0 -294.28 1517.89c-49.03,251.81 -70.06,440.68 -70.06,629.54 0,391.71 245.24,699.48 805.77,699.48 196.2,0 413.39,-20.99 532.51,-69.95l77.08 -636.53c-84.07,13.99 -182.17,20.99 -280.26,20.99 -217.21,0 -301.31,-118.92 -301.31,-307.78 0,-146.89 28.03,-321.76 63.06,-482.63l266.27 -1371.01 763.74 0 126.12 -629.52 -763.75 0 161.16 -874.35 -840.81 237.82zm2031.37 4043.01l308.29 -1622.79c133.12,-720.49 588.55,-1196.13 980.94,-1196.13 308.28,0 427.39,202.85 427.39,461.67 0,167.86 -21,314.77 -42.01,447.67l-364.37 1909.58 812.79 0 371.36 -1972.53c35.03,-181.89 63.05,-419.7 63.05,-594.58 0,-629.54 -385.37,-916.3 -854.82,-916.3 -476.44,0 -854.81,230.81 -1142.08,587.56l-14.05 0 399.43 -2070.47 -812.79 0 -945.91 4966.32 812.78 0zm-7994.99 -3465.45c-1163.15,0 -1968.9,1000.25 -1968.9,2154.39 0,811.4 532.51,1405.98 1394.34,1405.98 1163.11,0 1968.86,-993.28 1968.86,-2154.42 0,-748.44 -476.45,-1405.95 -1394.3,-1405.95zm-98.11 629.53c490.46,0 651.62,433.67 651.62,783.43 0,678.48 -406.39,1517.87 -1015.98,1517.87 -420.42,0 -665.64,-328.76 -665.64,-797.41 0,-636.54 378.38,-1503.89 1030,-1503.89zm3705.98 -629.53c-1163.14,0 -1968.89,1000.25 -1968.89,2154.39 0,811.4 532.5,1405.98 1394.34,1405.98 1163.1,0 1968.86,-993.28 1968.86,-2154.42 0,-748.44 -476.46,-1405.95 -1394.31,-1405.95zm-98.11 629.53c490.47,0 651.62,433.67 651.62,783.43 0,678.48 -406.39,1517.87 -1015.97,1517.87 -420.42,0 -665.64,-328.76 -665.64,-797.41 0,-636.54 378.37,-1503.89 1029.99,-1503.89zm-13705.52 2661.1c182.17,132.88 553.51,244.81 952.89,251.81 819.78,6.98 1450.39,-412.7 1450.39,-1168.14 0,-433.69 -329.3,-713.49 -707.69,-916.32 -294.28,-146.91 -441.4,-279.79 -441.4,-475.65 0,-230.83 210.2,-391.72 518.48,-391.72 280.29,0 504.48,83.96 637.6,153.88l203.22 -587.56c-147.16,-90.92 -441.43,-174.85 -798.76,-174.85 -805.77,0 -1380.32,461.64 -1380.32,1119.16 0,391.72 280.27,678.51 672.62,888.34 336.34,174.86 448.43,314.77 448.43,524.61 0,230.83 -196.18,419.7 -525.51,419.7 -308.27,0 -644.61,-125.92 -819.77,-223.84l-210.18 580.58zm3475.88 174.86l295.47 -1608.81c126.11,-692.49 560.52,-1210.11 937.72,-1210.11 335.16,0 412.22,237.83 412.22,489.64 0,125.9 -21.01,258.82 -42.03,398.7l-370.19 1930.58 790.58 0 301.3 -1629.79c133.13,-720.47 546.52,-1189.13 924.88,-1189.13 294.28,0 413.39,195.85 413.39,489.64 0,132.91 -21.03,293.8 -49.04,426.68l-350.33 1902.6 791.76 0 371.33 -1993.53c28.04,-181.86 56.05,-433.67 56.05,-580.56 0,-608.55 -364.33,-909.32 -826.75,-909.32 -476.47,6.97 -903.9,237.8 -1212.18,699.46 -28.02,-356.73 -266.27,-699.46 -798.77,-699.46 -447.26,0 -873.49,216.83 -1188.8,671.48l-14.02 0 77.1 -594.55 -708.87 0c-42.02,293.79 -91.08,650.51 -168.14,1056.22l-434.43 2350.26 791.75 0z"/>
 </g>
</svg>
